<?xml version="1.0" encoding="UTF-8"?>
<svg width="182px" height="55px" viewBox="0 0 182 55" version="1.1" xmlns="http://www.w3.org/2000/svg" xmlns:xlink="http://www.w3.org/1999/xlink">
    <!-- Generator: Sketch 48.2 (47327) - http://www.bohemiancoding.com/sketch -->
    <title>hw.b9123f6c</title>
    <desc>Created with Sketch.</desc>
    <defs></defs>
    <g id="PC端官网" stroke="none" stroke-width="1" fill="none" fill-rule="evenodd" transform="translate(-867.000000, -5936.000000)">
        <g id="Group-2" transform="translate(855.000000, 5859.000000)" fill="#00A6F4" fill-rule="nonzero">
            <g id="hw.b9123f6c" transform="translate(12.250000, 77.875000)">
                <path d="M4.81724818,2.8825881 L4.81724818,9.60862701 L15.21407,9.60862701 L15.21407,2.8825881 C15.21407,1.9217206 15.4330337,1.20108077 15.8709675,0.720647024 C16.3089014,0.240213273 16.8846946,0 17.5983646,0 C18.3228478,0 18.909454,0.237544236 19.358201,0.712639835 C19.8069481,1.18773543 20.0313182,1.91104429 20.0313182,2.8825881 L20.0313182,21.379195 C20.0313182,22.3507388 19.8042448,23.0767167 19.3500912,23.5571505 C18.8959376,24.0375843 18.3120345,24.2777976 17.5983646,24.2777976 C16.8738814,24.2777976 16.2953849,24.0349152 15.8628576,23.5491433 C15.4303304,23.0633714 15.21407,22.3400625 15.21407,21.379195 L15.21407,13.4841066 L4.81724818,13.4841066 L4.81724818,21.379195 C4.81724818,22.3507388 4.59017478,23.0767167 4.13602117,23.5571505 C3.68186756,24.0375843 3.09796452,24.2777976 2.38429455,24.2777976 C1.65981141,24.2777976 1.08131489,24.0349152 0.648787635,23.5491433 C0.216260382,23.0633714 0,22.3400625 0,21.379195 L0,2.8825881 C0,1.9217206 0.213557127,1.20108077 0.640677788,0.720647024 C1.06779845,0.240213273 1.64899823,0 2.38429455,0 C3.1087777,0 3.69538399,0.237544236 4.14413102,0.712639835 C4.59287803,1.18773543 4.81724818,1.91104429 4.81724818,2.8825881 Z M37.2566299,16.4627809 L28.595315,16.4627809 C28.6061282,17.4556773 28.8088722,18.3311213 29.2035534,19.089139 C29.5982345,19.8471567 30.122666,20.4183304 30.7768634,20.8026774 C31.4310609,21.1870244 32.1528299,21.379195 32.9421922,21.379195 C33.472038,21.379195 33.9559206,21.3178072 34.3938544,21.1950297 C34.8317883,21.0722522 35.2561993,20.8800815 35.6671002,20.6185121 C36.0780011,20.3569426 36.4564568,20.0766938 36.8024786,19.7777572 C37.1485003,19.4788206 37.5972407,19.0731271 38.1487129,18.5606645 C38.3757897,18.368491 38.7001802,18.2724057 39.1218944,18.2724057 C39.5760479,18.2724057 39.9436906,18.3951813 40.2248333,18.6407363 C40.505976,18.8862914 40.6465452,19.2332661 40.6465452,19.6816709 C40.6465452,20.0766943 40.4897565,20.5384376 40.1761742,21.0669147 C39.862592,21.5953918 39.3895224,22.1025087 38.7569513,22.5882806 C38.1243802,23.0740525 37.3296233,23.477077 36.3726567,23.7973662 C35.4156902,24.1176553 34.3154655,24.2777976 33.0719496,24.2777976 C30.228083,24.2777976 28.0168206,23.4770866 26.4380961,21.8756408 C24.8593716,20.2741949 24.0700213,18.1015993 24.0700213,15.3577888 C24.0700213,14.0659558 24.2646556,12.8675585 24.6539301,11.7625609 C25.0432046,10.6575633 25.6108882,9.7100553 26.3569977,8.92000871 C27.1031071,8.12996211 28.0222138,7.52409085 29.1143451,7.10237678 C30.2064764,6.68066271 31.4175346,6.46980883 32.7475558,6.46980883 C34.4776649,6.46980883 35.9617517,6.83012875 37.199861,7.55077939 C38.4379703,8.27142999 39.3651866,9.20292366 39.981538,10.3452884 C40.5978893,11.4876531 40.9060604,12.6513529 40.9060604,13.8364229 C40.9060604,14.9360823 40.5870762,15.648715 39.9490986,15.9743424 C39.3111209,16.2999697 38.4136403,16.4627809 37.2566299,16.4627809 Z M28.595315,13.9805522 L36.624062,13.9805522 C36.5159301,12.4858695 36.1077387,11.3675433 35.3994753,10.62554 C34.6912119,9.88353678 33.758589,9.51254069 32.6015786,9.51254069 C31.4986341,9.51254069 30.5930437,9.88887483 29.8847804,10.6415544 C29.176517,11.394234 28.7466995,12.5072221 28.595315,13.9805522 Z M44.6365893,21.6194107 L44.6365893,2.6583868 C44.6365893,1.78292974 44.8339268,1.12100872 45.2286079,0.672603889 C45.6232891,0.224199054 46.1558302,0 46.8262475,0 C47.4966647,0 48.0373157,0.221530018 48.4482166,0.6645967 C48.8591174,1.10766338 49.0645648,1.77225344 49.0645648,2.6583868 L49.0645648,21.6194107 C49.0645648,22.5055441 48.8564142,23.1701342 48.4401067,23.6132008 C48.0237992,24.0562675 47.4858516,24.2777976 46.8262475,24.2777976 C46.1774566,24.2777976 45.6503219,24.0482604 45.2448276,23.5891792 C44.8393333,23.1300981 44.6365893,22.4735152 44.6365893,21.6194107 Z M53.6385177,21.6194107 L53.6385177,2.6583868 C53.6385177,1.78292974 53.8358553,1.12100872 54.2305364,0.672603889 C54.6252175,0.224199054 55.1577587,0 55.8281759,0 C56.4985932,0 57.0392441,0.221530018 57.450145,0.6645967 C57.8610459,1.10766338 58.0664932,1.77225344 58.0664932,2.6583868 L58.0664932,21.6194107 C58.0664932,22.5055441 57.8583426,23.1701342 57.4420352,23.6132008 C57.0257277,24.0562675 56.4877799,24.2777976 55.8281759,24.2777976 C55.179385,24.2777976 54.6522503,24.0482604 54.2467561,23.5891792 C53.8412617,23.1300981 53.6385177,22.4735152 53.6385177,21.6194107 Z M79.2169704,15.3898176 C79.2169704,16.6923269 79.0115226,17.8933932 78.6006218,18.9930527 C78.189721,20.0927121 77.5950047,21.037551 76.8164561,21.8275977 C76.0379069,22.6176443 75.1079872,23.2235155 74.026669,23.6452296 C72.9453509,24.0669436 71.7288863,24.2777976 70.3772386,24.2777976 C69.0364041,24.2777976 67.8307525,24.0642746 66.7602476,23.6372224 C65.6897426,23.2101701 64.7625262,22.5989609 63.9785706,21.8035761 C63.1946149,21.0081913 62.5998988,20.0686905 62.1944046,18.9850455 C61.7889102,17.9014005 61.5861662,16.7030031 61.5861662,15.3898176 C61.5861662,14.0659557 61.7916136,12.8542131 62.2025144,11.7545537 C62.6134153,10.6548942 63.2027248,9.71539342 63.9704607,8.93602308 C64.7381966,8.15665281 65.6681162,7.55611963 66.7602476,7.13440553 C67.8523789,6.71269146 69.0580305,6.5018376 70.3772386,6.5018376 C71.7180731,6.5018376 72.9345377,6.7153605 74.026669,7.14241273 C75.1188003,7.56946498 76.0541268,8.17800524 76.8326754,8.96805183 C77.6112247,9.7580985 78.2032376,10.6975992 78.6087315,11.7865825 C79.0142261,12.8755656 79.2169704,14.076632 79.2169704,15.3898176 Z M74.7727748,15.3898176 C74.7727748,13.6068745 74.3753964,12.2189756 73.5806276,11.2260792 C72.7858587,10.2331828 71.7180731,9.736742 70.3772386,9.736742 C69.5121841,9.736742 68.7498662,9.95827203 68.0902622,10.4013387 C67.4306581,10.8444054 66.9224462,11.4983193 66.5656113,12.3631001 C66.2087763,13.2278808 66.0303614,14.2367766 66.0303614,15.3898176 C66.0303614,16.5321822 66.206073,17.5304019 66.5575014,18.3845063 C66.9089298,19.2386107 67.4117352,19.8925246 68.0659326,20.3462677 C68.7201302,20.8000107 69.4905578,21.0268787 70.3772386,21.0268787 C71.7180731,21.0268787 72.7858587,20.5277689 73.5806276,19.5295344 C74.3753964,18.5312998 74.7727748,17.151408 74.7727748,15.3898176 Z M108.152899,20.1781167 L104.308832,6.10147814 L100.416106,20.1781167 C100.113337,21.2457472 99.8727476,22.0117607 99.6943299,22.47618 C99.5159122,22.9405992 99.2050378,23.3569689 98.7616978,23.7253015 C98.318357,24.093634 97.7290475,24.2777976 96.9937513,24.2777976 C96.3990266,24.2777976 95.9097369,24.168367 95.5258691,23.9495028 C95.1420014,23.7306385 94.8311271,23.4210303 94.593237,23.0206689 C94.355347,22.6203074 94.1607131,22.1452189 94.0093285,21.5953891 C93.8579438,21.0455594 93.7227807,20.5357735 93.6038361,20.066016 L89.6462315,4.25982463 C89.4083415,3.34166235 89.2893984,2.64237482 89.2893984,2.16194107 C89.2893984,1.55339165 89.5056585,1.04093667 89.9381854,0.624560754 C90.3707131,0.208184836 90.9059572,0 91.543935,0 C92.4198027,0 93.0091122,0.277579782 93.3118814,0.832747672 C93.6146507,1.38791556 93.8795692,2.19396455 94.1066462,3.2509188 L97.2208267,16.9592266 L100.70806,4.1317096 C100.967577,3.14948949 101.200057,2.40215931 101.405507,1.88969664 C101.610958,1.37723398 101.946161,0.934173939 102.411128,0.560503241 C102.876095,0.186832545 103.508656,0 104.308832,0 C105.11982,0 105.749679,0.194839654 106.198426,0.584524808 C106.647173,0.974209964 106.958047,1.39858675 107.131058,1.85766788 C107.304069,2.31674902 107.536549,3.07475535 107.828505,4.1317096 L111.348178,16.9592266 L114.462358,3.2509188 C114.613743,2.53560632 114.757016,1.97510868 114.89218,1.56940908 C115.027345,1.16370946 115.259825,0.800720514 115.589627,0.480431349 C115.919429,0.160142181 116.397905,0 117.02507,0 C117.652234,0 118.184776,0.2055158 118.622709,0.616553565 C119.060643,1.02759133 119.279607,1.54271535 119.279607,2.16194107 C119.279607,2.5996696 119.160663,3.29895712 118.922774,4.25982463 L114.965168,20.066016 C114.694839,21.1336466 114.470469,21.9156743 114.292052,22.4121224 C114.113634,22.9085707 113.810869,23.3436236 113.383749,23.7172943 C112.956628,24.090965 112.353802,24.2777976 111.575253,24.2777976 C110.839957,24.2777976 110.250647,24.096303 109.807307,23.7333087 C109.363967,23.3703143 109.055796,22.9619517 108.882785,22.5082087 C108.709773,22.0544657 108.466481,21.2777762 108.152899,20.1781167 Z M137.916031,15.3898176 C137.916031,16.6923269 137.710584,17.8933932 137.299683,18.9930527 C136.888782,20.0927121 136.294066,21.037551 135.515517,21.8275977 C134.736968,22.6176443 133.807049,23.2235155 132.72573,23.6452296 C131.644412,24.0669436 130.427947,24.2777976 129.0763,24.2777976 C127.735465,24.2777976 126.529813,24.0642746 125.459309,23.6372224 C124.388804,23.2101701 123.461587,22.5989609 122.677632,21.8035761 C121.893676,21.0081913 121.29896,20.0686905 120.893466,18.9850455 C120.487971,17.9014005 120.285227,16.7030031 120.285227,15.3898176 C120.285227,14.0659557 120.490675,12.8542131 120.901576,11.7545537 C121.312476,10.6548942 121.901786,9.71539342 122.669522,8.93602308 C123.437258,8.15665281 124.367177,7.55611963 125.459309,7.13440553 C126.55144,6.71269146 127.757092,6.5018376 129.0763,6.5018376 C130.417134,6.5018376 131.633599,6.7153605 132.72573,7.14241273 C133.817862,7.56946498 134.753187,8.17800524 135.531737,8.96805183 C136.310286,9.7580985 136.902299,10.6975992 137.307793,11.7865825 C137.713287,12.8755656 137.916031,14.076632 137.916031,15.3898176 Z M133.471836,15.3898176 C133.471836,13.6068745 133.074457,12.2189756 132.279689,11.2260792 C131.48492,10.2331828 130.417134,9.736742 129.0763,9.736742 C128.211245,9.736742 127.448927,9.95827203 126.789324,10.4013387 C126.12972,10.8444054 125.621507,11.4983193 125.264673,12.3631001 C124.907837,13.2278808 124.729422,14.2367766 124.729422,15.3898176 C124.729422,16.5321822 124.905134,17.5304019 125.256563,18.3845063 C125.607991,19.2386107 126.110796,19.8925246 126.764994,20.3462677 C127.419192,20.8000107 128.189619,21.0268787 129.0763,21.0268787 C130.417134,21.0268787 131.48492,20.5277689 132.279689,19.5295344 C133.074457,18.5312998 133.471836,17.151408 133.471836,15.3898176 Z M145.798801,17.9681325 L145.798801,21.6194107 C145.798801,22.5055441 145.587947,23.1701342 145.166233,23.6132008 C144.744519,24.0562675 144.209274,24.2777976 143.560484,24.2777976 C142.922506,24.2777976 142.398075,24.0535985 141.987174,23.6051936 C141.576273,23.1567888 141.370825,22.4948678 141.370825,21.6194107 L141.370825,9.4484832 C141.370825,7.48404297 142.089891,6.5018376 143.528044,6.5018376 C144.263341,6.5018376 144.793178,6.73137472 145.117574,7.19045586 C145.441969,7.649537 145.620385,8.32747227 145.652824,9.22428189 C146.18267,8.32747227 146.726024,7.649537 147.282903,7.19045586 C147.839782,6.73137472 148.583177,6.5018376 149.51311,6.5018376 C150.443044,6.5018376 151.345931,6.73137472 152.221799,7.19045586 C153.097667,7.649537 153.535594,8.25807726 153.535594,9.01609503 C153.535594,9.54991028 153.349069,9.9903013 152.976014,10.3372812 C152.602959,10.6842611 152.200174,10.8577485 151.767647,10.8577485 C151.60545,10.8577485 151.213478,10.7589941 150.59172,10.5614825 C149.969962,10.3639709 149.421201,10.2652165 148.945421,10.2652165 C148.296631,10.2652165 147.766792,10.4333658 147.355891,10.7696694 C146.94499,11.105973 146.626006,11.6050828 146.398929,12.2670138 C146.171853,12.9289448 146.015064,13.7163104 145.928559,14.6291346 C145.842053,15.5419587 145.798801,16.6549469 145.798801,17.9681325 Z M155.514396,21.6194107 L155.514396,2.6583868 C155.514396,1.78292974 155.711734,1.12100872 156.106415,0.672603889 C156.501095,0.224199054 157.033637,0 157.704055,0 C158.374472,0 158.915123,0.221530018 159.326023,0.6645967 C159.736924,1.10766338 159.942372,1.77225344 159.942372,2.6583868 L159.942372,21.6194107 C159.942372,22.5055441 159.734221,23.1701342 159.317914,23.6132008 C158.901606,24.0562675 158.363658,24.2777976 157.704055,24.2777976 C157.055263,24.2777976 156.528129,24.0482604 156.122635,23.5891792 C155.71714,23.1300981 155.514396,22.4735152 155.514396,21.6194107 Z M176.648653,21.7795545 L176.648653,21.3471663 C176.053928,22.0197735 175.467322,22.566926 174.888816,22.98864 C174.310311,23.4103541 173.683156,23.7306385 173.007332,23.9495028 C172.331508,24.168367 171.59352,24.2777976 170.793345,24.2777976 C169.733653,24.2777976 168.752371,24.0562675 167.849471,23.6132008 C166.946571,23.1701342 166.16533,22.5375725 165.505725,21.715497 C164.846121,20.8934215 164.346019,19.9272303 164.005404,18.8168945 C163.664789,17.7065587 163.494484,16.5054924 163.494484,15.2136594 C163.494484,12.4805252 164.170297,10.3506342 165.521945,8.82392246 C166.873593,7.29721075 168.652334,6.53386635 170.858223,6.53386635 C172.134179,6.53386635 173.210074,6.7500583 174.085942,7.18244867 C174.96181,7.61483907 175.816038,8.27942908 176.648653,9.17623876 L176.648653,2.72244431 C176.648653,1.82563465 176.829771,1.14769941 177.192013,0.688618267 C177.554255,0.229537127 178.070576,0 178.740993,0 C179.411411,0 179.927732,0.210853873 180.289974,0.632567943 C180.652215,1.05428201 180.833333,1.67616749 180.833333,2.49824302 L180.833333,21.7795545 C180.833333,22.6123064 180.638699,23.2368608 180.249425,23.6532367 C179.86015,24.0696126 179.357345,24.2777976 178.740993,24.2777976 C178.135455,24.2777976 177.635353,24.0616056 177.240672,23.6292152 C176.845991,23.1968248 176.648653,22.5802775 176.648653,21.7795545 Z M167.938679,15.3577888 C167.938679,16.5428587 168.125204,17.5517545 168.498258,18.3845063 C168.871313,19.2172582 169.382228,19.8444817 170.031019,20.2661958 C170.67981,20.6879098 171.388062,20.8987637 172.155799,20.8987637 C172.934348,20.8987637 173.645304,20.698586 174.288688,20.2982245 C174.932073,19.8978631 175.44569,19.2839847 175.829559,18.456571 C176.213427,17.6291573 176.405358,16.5962402 176.405358,15.3577888 C176.405358,14.1940715 176.213427,13.1931829 175.829559,12.3550929 C175.44569,11.5170028 174.926666,10.8764341 174.272469,10.4333675 C173.618271,9.99030078 172.901909,9.76877075 172.123359,9.76877075 C171.312371,9.76877075 170.587898,9.99563883 169.949921,10.4493818 C169.311943,10.9031248 168.817248,11.5543697 168.465819,12.403136 C168.114391,13.2519023 167.938679,14.2367767 167.938679,15.3577888 Z" id="Hello-World"></path>
                <path d="M33.4249552,32.3687089 L35.482282,32.9757595 C34.8438013,34.6334747 34.0397885,36.2911899 33.1411859,37.8788608 L33.1411859,53.6621772 L31.0602115,53.6621772 L31.0602115,41.1008987 C30.3980833,42.0114747 29.7123077,42.8286582 29.026532,43.5524494 C28.8137052,43.0154431 28.1752244,41.848038 27.8205128,41.3577279 C30.0433718,39.1863544 32.1479936,35.7775316 33.4249552,32.3687089 Z M37.7287885,42.3616962 L39.8807052,42.7586139 C39.171282,45.770519 37.9416154,48.7123797 36.5464167,50.6269241 C36.1444102,50.2767025 35.1748654,49.7163481 34.6782692,49.459519 C36.073468,47.7317595 37.1376026,45.0467279 37.7287885,42.3616962 Z M47.6134167,38.6026519 L43.7588846,38.6026519 L43.7588846,51.1639304 C43.7588846,52.2846392 43.5224102,52.915038 42.8129872,53.2886076 C42.1035641,53.6388291 41.0394295,53.7088734 39.5496411,53.7088734 C39.4550513,53.1018228 39.1003398,52.1212025 38.7692756,51.5375 C39.8334102,51.5608481 40.85025,51.5608481 41.1576667,51.5375 C41.4650833,51.5375 41.5833205,51.4674557 41.5833205,51.1639304 L41.5833205,38.6026519 L38.3909167,38.6026519 C37.6814936,40.0735823 36.9247756,41.3810759 36.1207628,42.4317405 C35.7187564,42.0348228 34.8438013,41.3343797 34.3235577,41.0075064 C36.0971154,38.9528734 37.4450192,35.6607911 38.249032,32.3687089 L40.4245961,32.8356709 C40.093532,34.1198164 39.6915256,35.3806139 39.2185769,36.5947152 L48.1573077,36.5947152 L48.5120192,36.5246709 L50.0491026,36.8281962 C49.7416859,38.6026519 49.316032,40.6572848 49.0086154,41.9647785 L47.140468,41.6145569 C47.306,40.8207215 47.471532,39.7233608 47.6134167,38.6026519 Z M45.0831411,42.781962 L47.0458782,42.1515633 C48.3464872,44.5797659 49.4579167,47.7084114 49.8362756,49.8097405 L47.7316539,50.5568797 C47.4005898,48.4555506 46.3128077,45.2101646 45.0831411,42.781962 Z M69.6764744,38.9295253 L66.7678398,38.9295253 C66.3658333,40.7740253 65.9401795,42.5251329 65.5145256,44.0661076 C66.2712436,44.626462 67.0989039,45.2101646 67.8556218,45.8172152 C68.7069295,43.8793228 69.3454102,41.5912089 69.6764744,38.9295253 Z M70.6223718,36.8515443 L71.9466282,37.1784177 C71.6155641,41.3110316 70.7879039,44.626462 69.5818846,47.2181013 C70.6696667,48.1753734 71.6155641,49.1092975 72.2303974,49.9031329 L70.7879039,51.7476329 C70.2203654,51.0004936 69.4163526,50.1132659 68.4704552,49.226038 C67.1934936,51.1405823 65.585468,52.6115126 63.6936731,53.6855253 C63.3862564,53.148519 62.7950705,52.3313354 62.3221218,51.9577659 C64.1193269,51.0471899 65.6327628,49.6696519 66.8151346,47.7784557 C65.6091154,46.7511392 64.2848589,45.7471709 63.0788398,44.8832911 C63.5990833,43.3189684 64.1666218,41.1942911 64.6395705,38.9295253 L62.7004808,38.9295253 L62.7004808,36.9215886 L65.0652244,36.9215886 C65.3489936,35.3339177 65.585468,33.7228987 65.7273526,32.2753164 L67.9265641,32.4154051 C67.7373846,33.8396392 67.4772628,35.3572659 67.1698461,36.9215886 L70.2203654,36.9215886 L70.6223718,36.8515443 Z M84.3378848,41.9414304 L84.3378848,44.0194114 L79.3482758,44.0194114 L79.3482758,51.2339747 C79.3482758,52.4247279 79.0881538,53.0084304 78.2368462,53.3353038 C77.4091856,53.6621772 76.2031667,53.7088734 74.3586667,53.7088734 C74.2404295,53.1018228 73.9093654,52.2145949 73.6019487,51.6308924 C74.9025577,51.6775886 76.2268144,51.6775886 76.5815258,51.6542405 C76.9598848,51.6542405 77.1017689,51.5608481 77.1017689,51.2106266 L77.1017689,44.0194114 L71.8756859,44.0194114 L71.8756859,41.9414304 L77.1017689,41.9414304 L77.1017689,39.4665316 C78.2131985,38.5092595 79.3719227,37.1083734 80.246878,35.8242279 L72.8688782,35.8242279 L72.8688782,33.8396392 L81.7603144,33.8396392 L82.2569106,33.7228987 L83.7703462,34.7735633 C82.6352689,36.4779747 81.0272439,38.4392152 79.3482758,39.9101456 L79.3482758,41.9414304 L84.3378848,41.9414304 Z M112.738455,40.0268861 L108.789333,40.0268861 L108.789333,45.1868164 L112.738455,45.1868164 L112.738455,40.0268861 Z M115.032256,47.1947531 L106.590122,47.1947531 L106.590122,40.0268861 L102.806532,40.0268861 L102.806532,50.1833101 L117.728064,50.1833101 L117.728064,52.2846392 L100.512731,52.2846392 L100.512731,40.0268861 L97.2020894,40.0268861 L97.2020894,37.9489051 L100.512731,37.9489051 L100.512731,32.8823671 L102.806532,32.8823671 L102.806532,37.9489051 L106.590122,37.9489051 L106.590122,32.3920569 L108.789333,32.3920569 L108.789333,37.9489051 L112.738455,37.9489051 L112.738455,32.6488861 L115.032256,32.6488861 L115.032256,37.9489051 L118.366545,37.9489051 L118.366545,40.0268861 L115.032256,40.0268861 L115.032256,47.1947531 Z M136.102122,38.6026519 L136.102122,40.7740253 L140.926198,40.7740253 L140.926198,38.6026519 L136.102122,38.6026519 Z M136.102122,34.7969114 L136.102122,36.9215886 L140.926198,36.9215886 L140.926198,34.7969114 L136.102122,34.7969114 Z M148.02043,36.9215886 L148.02043,34.7969114 L143.149058,34.7969114 L143.149058,36.9215886 L148.02043,36.9215886 Z M148.02043,40.7740253 L148.02043,38.6026519 L143.149058,38.6026519 L143.149058,40.7740253 L148.02043,40.7740253 Z M150.290583,42.548481 L145.98675,42.548481 C147.713013,44.1828481 150.314231,45.5136899 152.986391,46.1907848 C152.489795,46.6343987 151.827667,47.4749304 151.496602,48.0352848 C149.935872,47.5449747 148.422436,46.7978354 147.050885,45.9106076 L147.050885,53.6388291 L144.780731,53.6388291 L144.780731,45.537038 L146.530641,45.537038 C145.348269,44.6731582 144.260487,43.6458418 143.432827,42.548481 L140.902552,42.548481 C140.051244,43.6224936 138.963461,44.6498101 137.757442,45.5136899 L139.72018,45.5136899 L139.72018,47.0079684 C139.72018,49.226038 139.152641,52.0745064 134.494096,53.848962 C134.233974,53.2886076 133.500904,52.4947721 133.004308,52.0745064 C137.024372,50.6969684 137.473673,48.5722911 137.473673,46.9379241 L137.473673,45.7238228 C136.007532,46.7277911 134.399506,47.5449747 132.767833,48.1286772 C132.436769,47.5683228 131.798289,46.7744874 131.301692,46.3308734 C133.831968,45.6070823 136.456833,44.2061962 138.206744,42.548481 L133.926558,42.548481 L133.926558,33.0224557 L150.290583,33.0224557 L150.290583,42.548481 Z" id="你-好-世-界"></path>
            </g>
        </g>
    </g>
</svg>