<?xml version="1.0" encoding="UTF-8"?>
<svg width="127px" height="33px" viewBox="0 0 127 33" version="1.1" xmlns="http://www.w3.org/2000/svg" xmlns:xlink="http://www.w3.org/1999/xlink">
    <!-- Generator: Sketch 60.1 (88133) - https://sketch.com -->
    <title>编组</title>
    <desc>Created with Sketch.</desc>
    <g id="边框" stroke="none" stroke-width="1" fill="none" fill-rule="evenodd">
        <g id="编组" transform="translate(0.009182, 0.748513)" fill="#3853E2" fill-rule="nonzero">
            <path d="M0.759305724,31.6772731 C0.560064722,31.6791092 0.367709307,31.6061338 0.221958202,31.4734152 C0.0807810747,31.3450126 0.000414795184,31.1651784 -2.30926389e-14,30.9767432 L-2.30926389e-14,4.66178783 C-2.2260807e-14,4.20168336 0.313948736,3.80095696 0.760683289,3.69084627 L15.4972786,0.0585848951 C16.569751,-0.205757045 17.6534532,0.449362159 17.9177952,1.52183459 C17.956398,1.67845168 17.975912,1.83916368 17.975912,2.00046801 L17.975912,3.87833873 L17.975912,3.87833873 L27.0430653,3.87846423 C27.2419461,3.87723595 27.4337439,3.95052464 27.5789901,4.08324879 C27.7196967,4.21170247 27.7996992,4.3913234 27.8,4.57945755 L27.8,30.9767432 C27.8,31.1650148 27.7203066,31.3449022 27.5794643,31.4734152 C27.434038,31.6063966 27.2417784,31.679566 27.0425911,31.678048 L0.759305724,31.6772731 Z M24.9795181,29.6919749 C25.1663537,29.6894167 25.3444569,29.6142874 25.4744747,29.4831871 C25.6044925,29.3520868 25.6757225,29.1758071 25.672426,28.9932981 L25.672426,6.51935108 C25.6804276,6.33969476 25.6117238,6.16485583 25.4827182,6.03657845 C25.349632,5.90403192 25.1694627,5.82656221 24.9795181,5.82021104 L17.975912,5.82021104 L17.975912,24.1756722 C17.975912,25.0841 17.3636733,25.8784229 16.4851908,26.1097444 L2.89162207,29.689195 L2.89162207,29.689195 L24.9795181,29.6919749 Z M13.6575103,14.6209346 C13.6199132,15.0037592 13.8157916,15.3724999 14.1578648,15.5628509 C14.5081326,15.762864 14.9415758,15.762864 15.2918435,15.5628509 C15.6339168,15.3724999 15.8297952,15.0037592 15.792198,14.6209346 L15.792198,12.6337831 C15.8297952,12.2509584 15.6339168,11.8822177 15.2918435,11.6918668 C14.9415758,11.4918536 14.5081326,11.4918536 14.1578648,11.6918668 C13.8157916,11.8822177 13.6199132,12.2509584 13.6575103,12.6337831 L13.6575103,14.6209346 Z" id="形状"></path>
            <path d="M118.704003,11.8989407 C120.346683,11.8989407 121.247406,12.5401528 122.081954,13.3765164 L122.081954,13.3765164 L122.072308,12.0662134 L126.395149,12.0662134 L126.398273,25.9777286 C126.409992,29.8250013 124.222274,32.0831831 120.101165,32.0831831 C117.738012,32.0831831 115.980857,31.5256074 114.288465,30.0201528 L114.288465,30.0201528 L116.862878,27.3995467 C117.283114,27.761971 117.962321,28.4031831 119.34563,28.4031831 C121.305318,28.4031831 121.923965,27.0650013 121.925566,25.9498498 L121.925566,25.9498498 L121.932892,24.862577 C121.372683,25.6431831 119.972036,26.1762439 118.704003,26.1762439 C116.686677,26.1762439 114.699337,24.862577 114.132686,22.102577 C113.983868,21.3777286 113.956651,20.262577 113.929634,19.0080316 C113.887847,15.9971225 114.265016,14.4080316 115.119538,13.3765164 C116.043345,12.2613649 117.320694,11.8989407 118.704003,11.8989407 Z M41.331845,7.21530432 C45.1071263,7.21530432 47.9688464,9.22257705 48.7129341,12.8468195 C48.8789229,13.6553043 48.9122644,14.5195467 48.9315984,17.1401528 C48.9417209,22.102577 48.7670055,23.3571225 47.3812941,25.0298498 C46.272725,26.3680316 44.4561307,27.0650013 41.9488828,27.0650013 L41.9488828,27.0650013 L34.3983202,27.0650013 L34.444118,7.21530432 Z M87.6281496,11.8989407 C89.0979157,11.8989407 90.1405207,12.3450013 91.1766013,13.3207589 L91.1766013,13.3207589 L87.9497992,16.6940922 C87.7080003,16.4989407 87.2017078,15.8577286 86.3371396,15.8577286 C85.2996577,15.8577286 84.3993456,16.6662134 84.4030675,18.0880316 L84.4030675,18.0880316 L84.4017032,27.0650013 L79.9059483,27.0650013 L79.9101969,12.0662134 L84.2330381,12.0662134 L84.2369602,13.3486377 C84.8607305,12.4565164 86.1583836,11.8989407 87.6281496,11.8989407 Z M96.630106,12.651668 L96.6209343,27.0650013 L92.1251795,27.0650013 L92.1343511,12.651668 L96.630106,12.651668 Z M107.109754,11.8989407 C108.637158,11.8989407 111.119909,12.902577 111.76097,16.0250013 C111.886892,16.6383346 111.926358,17.251668 111.91411,17.7534861 L111.91411,17.7534861 L111.894973,27.0650013 L107.399218,27.0650013 L107.412231,18.0043952 C107.418355,17.7534861 107.389936,17.4746983 107.344146,17.251668 C107.138091,16.2480316 106.331761,15.8298498 105.755382,15.8298498 C104.7179,15.8298498 103.812265,16.331668 103.809863,18.0043952 L103.809863,18.0043952 L103.796851,27.0650013 L99.3010959,27.0650013 L99.3053445,12.0662134 L103.599367,12.0662134 L103.609013,13.3765164 C104.394249,12.4286377 105.755264,11.8989407 107.109754,11.8989407 Z M71.9783717,12.1033851 C76.3679444,12.2847164 78.6430278,14.7931317 78.8036219,19.6286313 C78.6430278,24.3432433 76.3411787,26.791215 71.8980746,26.9725462 C67.5085019,26.6703275 65.2066527,24.2223558 64.9925272,19.6286313 C65.2066527,14.7931317 67.5352675,12.2847164 71.9783717,12.1033851 Z M57.0903516,12.1033851 C61.4799244,12.2847164 63.7550078,14.7931317 63.9156019,19.6286313 C63.7550078,24.3432433 61.4531587,26.791215 57.0100546,26.9725462 C52.6204819,26.6703275 50.3186327,24.2223558 50.1045072,19.6286313 C50.3186327,14.7931317 52.6472475,12.2847164 57.0903516,12.1033851 Z M71.8177775,15.4580129 C69.9441794,15.4580129 69.3649805,16.848219 69.3649805,19.6286313 C69.4185119,22.288156 69.9977108,23.6481403 71.8177775,23.708584 C73.7984384,23.708584 74.5326587,22.3485998 74.5326587,19.6286313 C74.4791273,16.9086628 73.744907,15.5184567 71.8177775,15.4580129 Z M56.9297575,15.4580129 C55.0561594,15.4580129 54.4769605,16.848219 54.4769605,19.6286313 C54.5304919,22.288156 55.1096908,23.6481403 56.9297575,23.708584 C58.9104184,23.708584 59.6446387,22.3485998 59.6446387,19.6286313 C59.5911073,16.9086628 58.856887,15.5184567 56.9297575,15.4580129 Z M41.3605823,11.2856074 L39.2279806,11.2856074 L39.211165,22.9946983 L41.3149478,22.9946983 C42.3812486,22.9946983 43.0618561,22.6601528 43.5237599,22.102577 C44.0087589,21.5171225 44.1712259,20.7643952 44.1476118,17.1401528 C44.1393673,14.8540922 44.0602357,13.7668195 43.9629319,13.2928801 C43.6538494,11.7874255 42.5133399,11.2856074 41.3605823,11.2856074 L41.3605823,11.2856074 Z M120.164853,15.8298498 C118.868001,15.8298498 118.428992,16.4989407 118.431097,19.0359104 C118.441359,19.9280316 118.50392,20.5134861 118.561157,20.792274 C118.727146,21.6007589 119.221991,22.1862134 120.173016,22.1862134 C121.469868,22.1862134 121.908877,21.5171225 121.906764,18.9801528 C121.89651,18.0880316 121.83395,17.502577 121.776712,17.2237892 C121.610723,16.4153043 121.115878,15.8298498 120.164853,15.8298498 Z M94.3303699,6.73976317 C95.5800954,6.73976317 96.5931982,7.7528659 96.5931982,9.00259145 C96.5931982,10.252317 95.5800954,11.2654197 94.3303699,11.2654197 C93.0806443,11.2654197 92.0675416,10.252317 92.0675416,9.00259145 C92.0675416,7.7528659 93.0806443,6.73976317 94.3303699,6.73976317 Z" id="形状结合"></path>
        </g>
    </g>
</svg>